<mxfile host="app.diagrams.net" modified="2023-08-14T10:35:51.596Z" agent="Mozilla/5.0 (Windows NT 10.0; Win64; x64; rv:109.0) Gecko/20100101 Firefox/113.0" etag="QPy1V0m6720NBtNHppqF" version="21.6.8" type="device">
  <diagram name="Page-1" id="SZFa8AL0iJzlwyiEqEzj">
    <mxGraphModel dx="2314" dy="1114" grid="1" gridSize="10" guides="1" tooltips="1" connect="1" arrows="1" fold="1" page="1" pageScale="1" pageWidth="850" pageHeight="1100" math="0" shadow="0">
      <root>
        <mxCell id="0" />
        <mxCell id="1" parent="0" />
        <mxCell id="fUayf5ZFE3bcmIoSoGg--1" value="user" style="shape=umlActor;verticalLabelPosition=bottom;verticalAlign=top;html=1;outlineConnect=0;" vertex="1" parent="1">
          <mxGeometry x="160" y="220" width="30" height="60" as="geometry" />
        </mxCell>
        <mxCell id="fUayf5ZFE3bcmIoSoGg--2" value="" style="endArrow=classic;html=1;rounded=0;" edge="1" parent="1">
          <mxGeometry width="50" height="50" relative="1" as="geometry">
            <mxPoint x="180" y="250" as="sourcePoint" />
            <mxPoint x="300" y="250" as="targetPoint" />
          </mxGeometry>
        </mxCell>
        <mxCell id="fUayf5ZFE3bcmIoSoGg--3" value="checkout" style="rounded=1;whiteSpace=wrap;html=1;" vertex="1" parent="1">
          <mxGeometry x="305" y="220" width="120" height="60" as="geometry" />
        </mxCell>
        <mxCell id="fUayf5ZFE3bcmIoSoGg--4" value="" style="rounded=1;whiteSpace=wrap;html=1;absoluteArcSize=1;arcSize=14;strokeWidth=2;" vertex="1" parent="1">
          <mxGeometry x="90" y="330" width="470" height="230" as="geometry" />
        </mxCell>
        <mxCell id="fUayf5ZFE3bcmIoSoGg--5" value="Payment Service" style="rounded=0;whiteSpace=wrap;html=1;" vertex="1" parent="1">
          <mxGeometry x="250" y="370" width="120" height="60" as="geometry" />
        </mxCell>
        <mxCell id="fUayf5ZFE3bcmIoSoGg--6" value="Wallet" style="rounded=0;whiteSpace=wrap;html=1;" vertex="1" parent="1">
          <mxGeometry x="110" y="475" width="120" height="60" as="geometry" />
        </mxCell>
        <mxCell id="fUayf5ZFE3bcmIoSoGg--7" value="Ledger Service" style="rounded=0;whiteSpace=wrap;html=1;" vertex="1" parent="1">
          <mxGeometry x="410" y="475" width="120" height="60" as="geometry" />
        </mxCell>
        <mxCell id="fUayf5ZFE3bcmIoSoGg--8" value="" style="endArrow=classic;html=1;rounded=0;entryX=1;entryY=0;entryDx=0;entryDy=0;" edge="1" parent="1" target="fUayf5ZFE3bcmIoSoGg--5">
          <mxGeometry width="50" height="50" relative="1" as="geometry">
            <mxPoint x="370" y="280" as="sourcePoint" />
            <mxPoint x="420" y="230" as="targetPoint" />
          </mxGeometry>
        </mxCell>
        <mxCell id="fUayf5ZFE3bcmIoSoGg--9" style="edgeStyle=orthogonalEdgeStyle;rounded=0;orthogonalLoop=1;jettySize=auto;html=1;exitX=0.5;exitY=1;exitDx=0;exitDy=0;" edge="1" parent="1" source="fUayf5ZFE3bcmIoSoGg--4" target="fUayf5ZFE3bcmIoSoGg--4">
          <mxGeometry relative="1" as="geometry" />
        </mxCell>
        <mxCell id="fUayf5ZFE3bcmIoSoGg--10" value="" style="endArrow=classic;html=1;rounded=0;entryX=0.808;entryY=-0.05;entryDx=0;entryDy=0;entryPerimeter=0;" edge="1" parent="1" target="fUayf5ZFE3bcmIoSoGg--6">
          <mxGeometry width="50" height="50" relative="1" as="geometry">
            <mxPoint x="260" y="430" as="sourcePoint" />
            <mxPoint x="310" y="380" as="targetPoint" />
          </mxGeometry>
        </mxCell>
        <mxCell id="fUayf5ZFE3bcmIoSoGg--11" value="" style="endArrow=classic;html=1;rounded=0;" edge="1" parent="1" target="fUayf5ZFE3bcmIoSoGg--7">
          <mxGeometry width="50" height="50" relative="1" as="geometry">
            <mxPoint x="370" y="430" as="sourcePoint" />
            <mxPoint x="420" y="380" as="targetPoint" />
          </mxGeometry>
        </mxCell>
        <mxCell id="fUayf5ZFE3bcmIoSoGg--14" value="TheadPirty Payment Provider" style="rounded=0;whiteSpace=wrap;html=1;rotation=0;" vertex="1" parent="1">
          <mxGeometry x="690" y="365" width="120" height="70" as="geometry" />
        </mxCell>
        <mxCell id="fUayf5ZFE3bcmIoSoGg--15" value="" style="endArrow=classic;html=1;rounded=0;entryX=0;entryY=0.5;entryDx=0;entryDy=0;" edge="1" parent="1" target="fUayf5ZFE3bcmIoSoGg--14">
          <mxGeometry width="50" height="50" relative="1" as="geometry">
            <mxPoint x="560" y="400" as="sourcePoint" />
            <mxPoint x="610" y="350" as="targetPoint" />
          </mxGeometry>
        </mxCell>
        <mxCell id="fUayf5ZFE3bcmIoSoGg--16" value="Stage 1 Payment System Overall Desgn" style="text;strokeColor=none;align=center;fillColor=none;html=1;verticalAlign=middle;whiteSpace=wrap;rounded=0;" vertex="1" parent="1">
          <mxGeometry x="340" y="170" width="190" height="30" as="geometry" />
        </mxCell>
      </root>
    </mxGraphModel>
  </diagram>
</mxfile>
